<svg xmlns="http://www.w3.org/2000/svg" width="338.285" height="79.347" viewBox="0 0 338.285 79.347">
  <g id="Group_36036" data-name="Group 36036" transform="translate(-110 -65.299)">
    <g id="Group_4292" data-name="Group 4292" transform="translate(110 81.021)">
      <path id="Path_3233" data-name="Path 3233" d="M3777.749,611.659a37.25,37.25,0,0,1-31.67-56.851,4.048,4.048,0,1,1,6.88,4.267,29.151,29.151,0,0,0,43.944,37.311,4.048,4.048,0,1,1,5.323,6.1A37.223,37.223,0,0,1,3777.749,611.659Z" transform="translate(-3740.505 -552.892)" fill="#6b40ff"/>
    </g>
    <g id="Group_4293" data-name="Group 4293" transform="translate(130.274 65.299)">
      <path id="Path_3234" data-name="Path 3234" d="M3853.34,550.554a4.053,4.053,0,0,1-4-4.69,29.484,29.484,0,0,0,.368-4.649,29.166,29.166,0,0,0-40.493-26.859,4.048,4.048,0,1,1-3.153-7.457,37.264,37.264,0,0,1,51.744,34.316,37.654,37.654,0,0,1-.47,5.93A4.052,4.052,0,0,1,3853.34,550.554Z" transform="translate(-3803.587 -503.972)" fill="#00e4e3"/>
    </g>
    <g id="Group_4294" data-name="Group 4294" transform="translate(165.75 123.115)">
      <path id="Path_3235" data-name="Path 3235" d="M3933.518,705.4a4.036,4.036,0,0,1-2.65-.989l-15.5-13.434a4.048,4.048,0,0,1,5.3-6.118l15.5,13.434a4.048,4.048,0,0,1-2.653,7.108Z" transform="translate(-3913.971 -683.867)" fill="#6b40ff"/>
    </g>
    <g id="Group_4297" data-name="Group 4297" transform="translate(127.404 82.931)">
      <g id="Group_4295" data-name="Group 4295" transform="translate(0.607 0.608)">
        <path id="Path_3236" data-name="Path 3236" d="M3835.3,580.143a19.507,19.507,0,0,1-1.5,7.528,19.973,19.973,0,0,1-10.317,10.317,19.71,19.71,0,0,1-15.113,0,19.967,19.967,0,0,1-10.319-10.317,19.724,19.724,0,0,1,0-15.113,19.97,19.97,0,0,1,10.319-10.317,19.235,19.235,0,0,1,7.472-1.506,18.887,18.887,0,0,1,16.117,8.031,2.692,2.692,0,0,1-1,3.848,3.1,3.1,0,0,1-3.9-1,14.005,14.005,0,1,0,2.4,11.321h-12.1a2.8,2.8,0,0,1-2.788-2.788,2.761,2.761,0,0,1,2.788-2.789h15.17A2.8,2.8,0,0,1,3835.3,580.143Z" transform="translate(-3796.544 -560.727)" fill="#00e4e3"/>
      </g>
      <g id="Group_4296" data-name="Group 4296" transform="translate(0 0)">
        <path id="Path_3237" data-name="Path 3237" d="M3814.615,598.817a20.009,20.009,0,0,1-7.764-1.553,20.578,20.578,0,0,1-10.64-10.633,20.33,20.33,0,0,1,0-15.592A20.577,20.577,0,0,1,3806.84,560.4a19.89,19.89,0,0,1,7.718-1.557,19.449,19.449,0,0,1,16.6,8.273,2.972,2.972,0,0,1,.516,2.4,3.6,3.6,0,0,1-1.7,2.339,3.681,3.681,0,0,1-4.669-1.133,13.39,13.39,0,1,0,2.092,11.533h-11.335a3.4,3.4,0,0,1-3.4-3.4,3.36,3.36,0,0,1,3.4-3.4h15.169a3.4,3.4,0,0,1,3.395,3.4,20,20,0,0,1-1.551,7.763,20.579,20.579,0,0,1-10.633,10.639A20.159,20.159,0,0,1,3814.615,598.817Zm.507-38.767c-.182,0-.364,0-.547.008a18.7,18.7,0,0,0-7.255,1.458,19.359,19.359,0,0,0-9.995,10,19.1,19.1,0,0,0,0,14.634,19.354,19.354,0,0,0,10,10,19.111,19.111,0,0,0,14.633,0,19.36,19.36,0,0,0,10-10,18.781,18.781,0,0,0,1.455-7.283,2.185,2.185,0,0,0-2.182-2.182h-15.169a2.159,2.159,0,0,0-2.182,2.182,2.184,2.184,0,0,0,2.182,2.181h12.847l-.15.73a14.1,14.1,0,1,1-2.53-11.837,2.522,2.522,0,0,0,3.144.868,2.361,2.361,0,0,0,1.111-1.531,1.754,1.754,0,0,0-.3-1.427A18.319,18.319,0,0,0,3815.121,560.05Z" transform="translate(-3794.655 -558.835)" fill="#00e4e3"/>
      </g>
    </g>
    <g id="Group_9897" data-name="Group 9897" transform="translate(205.225 81.021)">
      <path id="Path_3238" data-name="Path 3238" d="M4081.687,582.6l7.761,9.324h-10.431l-4.536-6.1a19.955,19.955,0,0,1-3.931.4,17.8,17.8,0,0,1-18.194-18.143c0-10.634,8.165-18.092,18.194-18.092a17.645,17.645,0,0,1,18.093,18.092A17.854,17.854,0,0,1,4081.687,582.6Zm-11.137-4.233c5.644,0,9.322-4.082,9.322-10.281,0-6.3-3.679-10.281-9.322-10.281-5.746,0-9.375,3.981-9.375,10.281C4061.176,574.282,4064.8,578.363,4070.55,578.363Z" transform="translate(-4052.356 -548.579)" fill="#6b40ff"/>
      <path id="Path_3239" data-name="Path 3239" d="M4185.951,551.558v28.726h11.292v6.653h-19.91V551.558Z" transform="translate(-4137.167 -549.643)" fill="#6b40ff"/>
      <path id="Path_3240" data-name="Path 3240" d="M4243.036,551.558H4270.4v6.9h-9.375v28.475h-8.617V558.462h-9.374Z" transform="translate(-4181.753 -549.643)" fill="#6b40ff"/>
      <path id="Path_3241" data-name="Path 3241" d="M4349.2,586.226c-7.608,0-13.557-3.78-13.809-10.937h9.172a4.058,4.058,0,0,0,4.385,4.032c2.519,0,4.133-1.26,4.133-3.327,0-6.551-17.689-3.024-17.588-15.572,0-6.7,5.493-10.432,12.9-10.432,7.712,0,12.9,3.83,13.255,10.583h-9.322a3.831,3.831,0,0,0-4.083-3.679c-2.065-.051-3.629,1.008-3.629,3.226,0,6.148,17.489,3.376,17.489,15.22C4362.107,581.286,4357.47,586.226,4349.2,586.226Z" transform="translate(-4244.431 -548.579)" fill="#6b40ff"/>
      <path id="Path_3242" data-name="Path 3242" d="M4462.668,561.67h-5.492c-1.914-4.082-5.746-6.451-10.684-6.451-7.408,0-12.954,5.342-12.954,13.809,0,8.416,5.546,13.758,12.954,13.758,6.9,0,11.641-4.435,12.346-11.39h-14.011v-3.73h18.9V571.2a17.038,17.038,0,0,1-17.235,15.724c-9.88,0-17.64-7.358-17.64-17.891s7.76-17.942,17.64-17.942C4453.9,551.087,4460.047,554.917,4462.668,561.67Z" transform="translate(-4307.852 -549.323)" fill="#00e4e3"/>
      <path id="Path_3243" data-name="Path 3243" d="M4561.373,602.82c-7.862,0-13.657-5.544-13.657-14.313,0-8.719,5.594-14.212,13.657-14.212,8.014,0,13.254,5.645,13.254,13.2a25.389,25.389,0,0,1-.149,2.772H4552.4c.352,5.594,4.283,8.668,8.97,8.668,4.133,0,6.753-2.116,7.762-5.09h4.938C4572.663,598.889,4568.227,602.82,4561.373,602.82Zm-8.921-16.278h17.438c.051-5.392-3.981-8.366-8.719-8.366C4556.686,578.176,4552.956,581.149,4552.452,586.542Z" transform="translate(-4388.513 -565.072)" fill="#00e4e3"/>
      <path id="Path_3244" data-name="Path 3244" d="M4655.458,602.82c-7.861,0-13.658-5.544-13.658-14.313,0-8.719,5.595-14.212,13.658-14.212,8.014,0,13.255,5.645,13.255,13.2a24.906,24.906,0,0,1-.15,2.772h-22.075c.354,5.594,4.284,8.668,8.971,8.668,4.133,0,6.753-2.116,7.762-5.09h4.939C4666.75,598.889,4662.313,602.82,4655.458,602.82Zm-8.919-16.278h17.437c.051-5.392-3.98-8.366-8.719-8.366C4650.772,578.176,4647.042,581.149,4646.54,586.542Z" transform="translate(-4452.361 -565.072)" fill="#00e4e3"/>
      <path id="Path_3245" data-name="Path 3245" d="M4741.218,545.6h4.586v21.923l10.634-12.247h6.4l-13,13.759,13.05,13.859h-6.248L4745.8,570.7v12.2h-4.586Z" transform="translate(-4519.827 -545.599)" fill="#00e4e3"/>
    </g>
  </g>
</svg>
