<svg xmlns="http://www.w3.org/2000/svg" width="181.335" height="48" viewBox="0 0 181.335 48">
  <g id="Group_36289" data-name="Group 36289" transform="translate(-99 -69)">
    <g id="Group_11775" data-name="Group 11775" transform="translate(104.883 74.093)">
      <text id="SignGaze" transform="translate(51.452 28.907)" font-size="28" font-family="Helvetica-Bold, Helvetica" font-weight="700" letter-spacing="-0.02em"><tspan x="0" y="0">Sign</tspan><tspan y="0" font-family="Helvetica-Light, Helvetica" font-weight="300">Gaze</tspan></text>
    </g>
    <rect id="Rectangle_19144" data-name="Rectangle 19144" width="48" height="48" rx="4" transform="translate(99 69)"/>
    <g id="Group_36285" data-name="Group 36285" transform="translate(110.7 76.963)">
      <path id="Path_16468" data-name="Path 16468" d="M951.084,1110.069a1.154,1.154,0,0,1-.661,1.153c-5.044,2.9-10.071,5.82-15.118,8.71a1.234,1.234,0,0,1-1.015.085c-1.523-.848-3.035-1.718-4.542-2.593l-2.741-1.592a2.582,2.582,0,0,1-.324-.3c2.267-1.312,4.429-2.566,6.594-3.817l3.249-1.877c.4-.233.8-.464,1.2-.7q2.214-1.276,4.44-2.533a1.477,1.477,0,0,0,.829-1.49c-.028-2.363-.006-4.728,0-7.091v-.178c0-.283.03-.568.052-.985.381.19.645.3.892.445.05.03.1.057.151.088,2.1,1.208,4.179,2.431,6.286,3.622a1.348,1.348,0,0,1,.546.5v0a1.36,1.36,0,0,1,.154.711Q951.047,1106.15,951.084,1110.069Z" transform="translate(-926.545 -1085.252)" fill="#fbffff"/>
      <path id="Path_16469" data-name="Path 16469" d="M950.759,1072.473l-.156.09c-1.72,1-3.271,1.913-4.824,2.813-3.471,2.011-6.932,4.037-10.422,6.012a1.636,1.636,0,0,0-.933,1.677c.066,2.368.063,4.736.088,7.1,0,.316,0,.629,0,1.092-.352-.154-.566-.228-.757-.337-1.424-.818-2.848-1.644-4.273-2.462-.84-.486-1.677-.966-2.519-1.443a1.1,1.1,0,0,1-.62-1.1q.037-4,.009-8a1.036,1.036,0,0,1,.593-1.029c5.044-2.886,10.079-5.8,15.126-8.679a1.216,1.216,0,0,1,.944-.17C945.548,1069.457,948.056,1070.917,950.759,1072.473Z" transform="translate(-926.341 -1068)" fill="#fbffff"/>
    </g>
  </g>
</svg>
