<svg width="51" height="51" viewBox="0 0 51 51" fill="none" xmlns="http://www.w3.org/2000/svg">
<g clip-path="url(#clip0)">
<rect opacity="0.15" x="0.832275" y="0.479004" width="50" height="50" rx="10" fill="#1DE2CF"/>
<path d="M16.4703 23.1267C16.7631 23.2938 17.6458 23.79 19.1185 24.615C20.5913 25.4401 21.7195 26.0754 22.5032 26.5209C22.5894 26.5697 22.7723 26.6759 23.0522 26.8395C23.3321 27.0032 23.5646 27.1355 23.7497 27.2365C23.9349 27.3374 24.1588 27.4505 24.4216 27.5758C24.6843 27.701 24.9319 27.7952 25.1645 27.8575C25.3971 27.9204 25.6123 27.9515 25.8104 27.9515H25.8234H25.8364C26.0345 27.9515 26.2499 27.9203 26.4824 27.8575C26.7149 27.7952 26.9627 27.7009 27.2252 27.5758C27.4878 27.4504 27.7117 27.3373 27.8969 27.2365C28.0821 27.1355 28.3145 27.0032 28.5945 26.8395C28.8743 26.6757 29.0575 26.5697 29.1436 26.5209C29.9358 26.0754 31.9513 24.9439 35.1895 23.1265C35.8181 22.7716 36.3434 22.3433 36.7653 21.8419C37.1876 21.3408 37.3985 20.8151 37.3985 20.2651C37.3985 19.8055 37.1938 19.4121 36.7847 19.0848C36.3756 18.7575 35.8911 18.594 35.3315 18.594H16.3152C15.6521 18.594 15.1418 18.775 14.7843 19.137C14.427 19.4991 14.2483 19.9517 14.2483 20.4947C14.2483 20.9334 14.4852 21.4087 14.9588 21.9204C15.4324 22.4322 15.9364 22.8343 16.4703 23.1267Z" fill="#1DE2CF"/>
<path d="M36.1065 24.2446C33.2819 25.7902 31.1371 26.9914 29.6732 27.8479C29.1823 28.1402 28.7841 28.3684 28.4782 28.5319C28.1724 28.6955 27.7657 28.8626 27.2574 29.0331C26.7494 29.2039 26.2759 29.289 25.8366 29.289H25.8234H25.8104C25.3712 29.289 24.8975 29.2039 24.3894 29.0331C23.8814 28.8626 23.4744 28.6955 23.1686 28.5319C22.863 28.3684 22.4646 28.1402 21.9738 27.8479C20.811 27.1586 18.6709 25.9574 15.5532 24.2446C15.0622 23.9802 14.6272 23.6771 14.2483 23.336V31.6284C14.2483 32.0882 14.4506 32.4814 14.8554 32.8087C15.2602 33.1361 15.7469 33.2997 16.3153 33.2997H35.3316C35.8999 33.2997 36.3866 33.1361 36.7914 32.8087C37.1963 32.4813 37.3985 32.0883 37.3985 31.6284V23.336C37.0281 23.67 36.5976 23.9731 36.1065 24.2446Z" fill="#1DE2CF"/>
</g>
<defs>
<clipPath id="clip0">
<rect width="50" height="50" fill="white" transform="translate(0.832275 0.479004)"/>
</clipPath>
</defs>
</svg>
