<svg width="196" height="44" viewBox="0 0 196 44" fill="none" xmlns="http://www.w3.org/2000/svg">
<path d="M4.82211 14.9296C3.84466 14.9296 3.04097 14.6472 2.41105 14.0825C1.80286 13.496 1.49876 12.7792 1.49876 11.9321C1.49876 11.0632 1.80286 10.3464 2.41105 9.78167C3.04097 9.1952 3.84466 8.90196 4.82211 8.90196C5.77784 8.90196 6.55981 9.1952 7.168 9.78167C7.79792 10.3464 8.11287 11.0632 8.11287 11.9321C8.11287 12.7792 7.79792 13.496 7.168 14.0825C6.55981 14.6472 5.77784 14.9296 4.82211 14.9296ZM7.59156 16.8193V35H2.02007V16.8193H7.59156ZM20.707 16.6239C22.8357 16.6239 24.5299 17.3189 25.7897 18.7091C27.0713 20.0775 27.7121 21.9673 27.7121 24.3783V35H22.1732V25.1277C22.1732 23.9113 21.8582 22.9664 21.2283 22.2931C20.5984 21.6197 19.7513 21.2831 18.6869 21.2831C17.6226 21.2831 16.7754 21.6197 16.1455 22.2931C15.5156 22.9664 15.2007 23.9113 15.2007 25.1277V35H9.62916V16.8193H15.2007V19.2304C15.7654 18.4267 16.5257 17.7968 17.4814 17.3407C18.4371 16.8628 19.5123 16.6239 20.707 16.6239ZM28.4759 25.8771C28.4759 24.0091 28.8235 22.3691 29.5185 20.9572C30.2354 19.5454 31.2019 18.4593 32.4183 17.6991C33.6347 16.9388 34.9923 16.5587 36.4911 16.5587C37.6857 16.5587 38.7718 16.8085 39.7492 17.3081C40.7484 17.8077 41.5304 18.481 42.0951 19.3281V10.8895H47.6666V35H42.0951V32.3935C41.5738 33.2623 40.8244 33.9574 39.847 34.4787C38.8913 35 37.7726 35.2607 36.4911 35.2607C34.9923 35.2607 33.6347 34.8805 32.4183 34.1203C31.2019 33.3383 30.2354 32.2414 29.5185 30.8295C28.8235 29.3959 28.4759 27.7451 28.4759 25.8771ZM42.0951 25.9097C42.0951 24.5195 41.7042 23.4226 40.9222 22.6189C40.1619 21.8152 39.2279 21.4134 38.1202 21.4134C37.0124 21.4134 36.0675 21.8152 35.2855 22.6189C34.5253 23.4009 34.1452 24.4869 34.1452 25.8771C34.1452 27.2672 34.5253 28.375 35.2855 29.2004C36.0675 30.0041 37.0124 30.406 38.1202 30.406C39.2279 30.406 40.1619 30.0041 40.9222 29.2004C41.7042 28.3968 42.0951 27.2998 42.0951 25.9097ZM52.4994 14.9296C51.5219 14.9296 50.7182 14.6472 50.0883 14.0825C49.4801 13.496 49.176 12.7792 49.176 11.9321C49.176 11.0632 49.4801 10.3464 50.0883 9.78167C50.7182 9.1952 51.5219 8.90196 52.4994 8.90196C53.4551 8.90196 54.2371 9.1952 54.8453 9.78167C55.4752 10.3464 55.7902 11.0632 55.7902 11.9321C55.7902 12.7792 55.4752 13.496 54.8453 14.0825C54.2371 14.6472 53.4551 14.9296 52.4994 14.9296ZM55.2688 16.8193V35H49.6973V16.8193H55.2688ZM56.1987 25.8771C56.1987 24.0091 56.5462 22.3691 57.2413 20.9572C57.9581 19.5454 58.9247 18.4593 60.1411 17.6991C61.3574 16.9388 62.715 16.5587 64.2138 16.5587C65.4953 16.5587 66.614 16.8193 67.5697 17.3407C68.5472 17.862 69.2966 18.5462 69.8179 19.3933V16.8193H75.3894V35H69.8179V32.426C69.2748 33.2732 68.5146 33.9574 67.5371 34.4787C66.5814 35 65.4628 35.2607 64.1812 35.2607C62.7042 35.2607 61.3574 34.8805 60.1411 34.1203C58.9247 33.3383 57.9581 32.2414 57.2413 30.8295C56.5462 29.3959 56.1987 27.7451 56.1987 25.8771ZM69.8179 25.9097C69.8179 24.5195 69.4269 23.4226 68.6449 22.6189C67.8847 21.8152 66.9507 21.4134 65.8429 21.4134C64.7351 21.4134 63.7902 21.8152 63.0083 22.6189C62.248 23.4009 61.8679 24.4869 61.8679 25.8771C61.8679 27.2672 62.248 28.375 63.0083 29.2004C63.7902 30.0041 64.7351 30.406 65.8429 30.406C66.9507 30.406 67.8847 30.0041 68.6449 29.2004C69.4269 28.3968 69.8179 27.2998 69.8179 25.9097ZM88.4979 16.6239C90.6266 16.6239 92.3208 17.3189 93.5807 18.7091C94.8622 20.0775 95.503 21.9673 95.503 24.3783V35H89.9641V25.1277C89.9641 23.9113 89.6491 22.9664 89.0192 22.2931C88.3893 21.6197 87.5422 21.2831 86.4778 21.2831C85.4135 21.2831 84.5664 21.6197 83.9364 22.2931C83.3065 22.9664 82.9916 23.9113 82.9916 25.1277V35H77.4201V16.8193H82.9916V19.2304C83.5563 18.4267 84.3166 17.7968 85.2723 17.3407C86.228 16.8628 87.3032 16.6239 88.4979 16.6239Z" fill="white"/>
<path d="M103.571 19.4913C104.115 18.6442 104.864 17.96 105.82 17.4387C106.775 16.9174 107.894 16.6567 109.176 16.6567C110.674 16.6567 112.032 17.0369 113.248 17.7971C114.465 18.5573 115.42 19.6434 116.115 21.0553C116.832 22.4672 117.191 24.1071 117.191 25.9751C117.191 27.8432 116.832 29.494 116.115 30.9276C115.42 32.3394 114.465 33.4364 113.248 34.2183C112.032 34.9786 110.674 35.3587 109.176 35.3587C107.916 35.3587 106.797 35.098 105.82 34.5767C104.864 34.0554 104.115 33.3821 103.571 32.5567L98 43.7648V16.9174H103.571V19.4913ZM111.521 25.9751C111.521 24.585 111.13 23.4989 110.349 22.7169C109.588 21.9133 108.643 21.5114 107.514 21.5114C106.406 21.5114 105.461 21.9133 104.679 22.7169C103.919 23.5206 103.539 24.6176 103.539 26.0077C103.539 27.3979 103.919 28.4948 104.679 29.2985C105.461 30.1022 106.406 30.504 107.514 30.504C108.622 30.504 109.567 30.1022 110.349 29.2985C111.13 28.4731 111.521 27.3653 111.521 25.9751Z" fill="#0CD68A"/>
<path d="M120.916 15.0276C119.938 15.0276 119.135 14.7453 118.505 14.1805C117.896 13.594 117.592 12.8772 117.592 12.0301C117.592 11.1613 117.896 10.4445 118.505 9.87971C119.135 9.29324 119.938 9 120.916 9C121.871 9 122.653 9.29324 123.262 9.87971C123.891 10.4445 124.206 11.1613 124.206 12.0301C124.206 12.8772 123.891 13.594 123.262 14.1805C122.653 14.7453 121.871 15.0276 120.916 15.0276ZM123.685 16.9174V35.098H118.114V16.9174H123.685Z" fill="#0CD68A"/>
<path d="M136.475 35.098L132.988 30.0479L130.056 35.098H124.028L130.024 25.8122L123.866 16.9174H130.121L133.608 21.935L136.54 16.9174H142.568L136.475 26.0729L142.73 35.098H136.475Z" fill="#0CD68A"/>
</svg>
